<svg xmlns="http://www.w3.org/2000/svg" viewBox="0 0 1200 600">
  <defs>
    <linearGradient id="gold" x1="0" y1="0" x2="1" y2="1">
      <stop offset="0" stop-color="#d6b25b"/>
      <stop offset="1" stop-color="#f2df8b"/>
    </linearGradient>
    <radialGradient id="glow" cx="50%" cy="50%" r="60%">
      <stop offset="0" stop-color="rgba(214,178,91,.45)"/>
      <stop offset="1" stop-color="rgba(214,178,91,0)"/>
    </radialGradient>
    <filter id="blur" x="-20%" y="-20%" width="140%" height="140%">
      <feGaussianBlur stdDeviation="40"/>
    </filter>
  </defs>
  <rect width="1200" height="600" fill="none"/>
  <g opacity="0.5" filter="url(#blur)">
    <circle cx="300" cy="160" r="140" fill="url(#glow)"/>
    <circle cx="920" cy="120" r="180" fill="url(#glow)"/>
    <circle cx="680" cy="420" r="200" fill="url(#glow)"/>
  </g>
  <g fill="none" stroke="url(#gold)" stroke-width="2">
    <path d="M80,420 C240,300 420,300 580,420 S920,540 1120,420" opacity="0.8"/>
    <path d="M80,470 C240,350 420,350 580,470 S920,590 1120,470" opacity="0.6"/>
    <path d="M80,520 C240,400 420,400 580,520 S920,640 1120,520" opacity="0.4"/>
  </g>
  <g transform="translate(420,140)">
    <rect x="0" y="0" width="360" height="220" rx="24" fill="rgba(20,20,27,0.9)" stroke="url(#gold)"/>
    <rect x="24" y="26" width="312" height="36" rx="10" fill="rgba(255,255,255,0.06)"/>
    <rect x="24" y="76" width="216" height="18" rx="8" fill="url(#gold)"/>
    <rect x="24" y="112" width="312" height="12" rx="6" fill="rgba(255,255,255,0.08)"/>
    <rect x="24" y="132" width="240" height="12" rx="6" fill="rgba(255,255,255,0.08)"/>
    <rect x="24" y="152" width="200" height="12" rx="6" fill="rgba(255,255,255,0.08)"/>
    <rect x="24" y="182" width="128" height="24" rx="10" fill="url(#gold)"/>
  </g>
</svg>
